<svg width="512" height="514" viewBox="0 0 512 514" fill="none" xmlns="http://www.w3.org/2000/svg">
<path fill-rule="evenodd" clip-rule="evenodd" d="M0 513.2H512V1.2H0V513.2Z" fill="#238CF5"/>
<path fill-rule="evenodd" clip-rule="evenodd" d="M464 512.6C473 513.1 482.2 513.3 491.6 513.3C498.4 513.3 505.1 513.2 511.8 512.9V1H396.4C448.1 153.9 483.1 350.4 464 512.6Z" fill="#375C85"/>
<path fill-rule="evenodd" clip-rule="evenodd" d="M396.4 1C448.1 153.9 483.1 350.4 464 512.6C384 508.5 322.1 486.9 316.7 460.4V1H396.4Z" fill="#5976AB"/>
<path fill-rule="evenodd" clip-rule="evenodd" d="M146.7 363.6L130.3 513.2H175.4L168.4 363.2L146.7 363.6Z" fill="white"/>
<path fill-rule="evenodd" clip-rule="evenodd" d="M464.8 512.6C384.8 508.5 322.9 486.9 317.5 460.4C317.3 459.2 317.1 457.9 317.1 456.7V419.3C296.6 435.5 285 462.9 286.3 478.6C287.2 490.8 294.9 502.6 307.8 513.2H479.5C474.6 513.1 469.7 512.9 464.8 512.6Z" fill="#8B8EAE"/>
<path fill-rule="evenodd" clip-rule="evenodd" d="M309.7 1.2C308.3 4.7 312 13 312.9 17C313.7 20.9 310.5 45 306.2 63.2C302.4 79.2 314.2 130.8 319.6 142.8C326.5 158.1 334.7 160.1 339.2 143.2C343.7 126.3 362.8 93.3 347.5 63.6C332.2 34 339.8 30.2 345.7 22C354.1 10.4 358.4 0.399999 346.8 0.999999L309.7 1.2Z" fill="#8B8EAE"/>
<path fill-rule="evenodd" clip-rule="evenodd" d="M361.3 1.2H349.6C357.4 2.4 353.2 11.6 345.6 22.1C339.7 30.3 332.1 34.1 347.4 63.7C362.7 93.3 343.6 126.4 339.1 143.3C335.4 157.3 329.1 158.3 323.2 149.5C330.1 164.3 342.2 160 346.6 143.3C351.1 126.4 370.2 93.4 354.9 63.7C339.6 34 347.2 30.3 353.1 22.1C358.7 14.3 362.6 5.9 361.3 1.2Z" fill="#213245"/>
<path fill-rule="evenodd" clip-rule="evenodd" d="M325.4 225.8C334.9 218.1 344.9 212.1 354.6 207.8C344.5 187.2 328 173.4 318.6 184.2C309.5 194.7 293.4 210.7 287.3 221.2C287.5 232.2 290.5 255.4 292.1 267.3C298.3 253.3 309.8 238.5 325.4 225.8Z" fill="#8B8EAE"/>
<path fill-rule="evenodd" clip-rule="evenodd" d="M334.6 299.4C350.8 310.2 365.2 271.7 363.1 238.2C362.5 227.8 359.2 217.1 354.6 207.7C344.9 212 334.9 218 325.4 225.7C309.8 238.4 298.3 253.2 292.1 267.2C292.7 271.8 293.2 274.7 293.2 274.7C293.2 274.7 323.9 292.3 334.6 299.4Z" fill="#213245"/>
<path fill-rule="evenodd" clip-rule="evenodd" d="M302.4 247C303.3 261.9 299.8 274.5 294.5 275C289.2 275.6 284.2 263.9 283.2 249C282.2 234.1 283.6 218 291.1 221C296.2 223 301.5 232.1 302.4 247Z" fill="#5976AB"/>
<path fill-rule="evenodd" clip-rule="evenodd" d="M284 231.8C207.8 243.2 157.9 296.7 144.6 363.6C143.8 367.6 146 371.6 149.1 372C150.8 372.2 152.8 372.2 155.1 372C186.4 257.4 268.5 249.6 293 246.6C292.1 238.7 289.2 231.5 284 231.8Z" fill="#5976AB"/>
<path fill-rule="evenodd" clip-rule="evenodd" d="M290.6 265.3C292.9 262.2 293.8 254.2 293 246.7C268.5 249.7 186.4 257.5 155.2 372.1C159.3 371.7 164.3 370.5 170.2 367.9C172.7 366.8 174.6 364.1 175.3 360.8C186.7 306.5 243.7 264.1 290.6 265.3Z" fill="#3B5075"/>
<path fill-rule="evenodd" clip-rule="evenodd" d="M203.7 265.5C204.5 266.6 204.2 268.6 202.7 269.7C201.2 270.8 199.3 270.8 198.5 269.7L203.7 265.5Z" fill="#3B5075"/>
</svg>
