<svg width="32" height="32" viewBox="0 0 32 32" fill="none" xmlns="http://www.w3.org/2000/svg">
<path fill-rule="evenodd" clip-rule="evenodd" d="M0 32H32V0H0V32Z" fill="#238CF5"/>
<path fill-rule="evenodd" clip-rule="evenodd" d="M17.7 15.6L18.1 32H9.20001L11.6 16.8C11.8 16.9 11.9 17 12.1 17C12.5 17 13 17.1 13.6 17C14.6 16.9 15.8 16.6 17.3 16C17.4 15.9 17.6 15.8 17.7 15.6Z" fill="white"/>
<path fill-rule="evenodd" clip-rule="evenodd" d="M13.6 17C15.6 9.7 18.4 4.2 21.6 0H17C14.1 4.5 12 9.5 10.9 15C10.7 16 11.2 17 12 17.1C12.5 17.1 13 17.1 13.6 17Z" fill="#5976AB"/>
<path fill-rule="evenodd" clip-rule="evenodd" d="M18.5 14.2C19.6 8.8 22.6 3.9 26.5 0H21.6C18.4 4.2 15.6 9.7 13.6 17C14.6 16.9 15.8 16.6 17.3 16C17.8 15.7 18.3 15 18.5 14.2Z" fill="#3B5075"/>
</svg>
